<svg width="2289" height="2289" viewBox="0 0 2289 2289" fill="none" xmlns="http://www.w3.org/2000/svg">
<path opacity="0.12" d="M149.841 2137.52L149.84 2137.52C67.0855 2054.15 67.0855 1918.98 149.84 1835.61L533.641 1448.95C616.395 1365.58 750.566 1365.58 833.32 1448.95L833.321 1448.96C916.076 1532.33 916.075 1667.49 833.321 1750.86L449.52 2137.52C366.766 2220.89 232.595 2220.89 149.841 2137.52Z" fill="#F3613C"/>
<path opacity="0.12" d="M1454.84 839.521L1454.84 839.52C1372.09 756.15 1372.09 620.981 1454.84 537.611L1838.64 150.954C1921.4 67.5846 2055.57 67.5845 2138.32 150.954L2138.32 150.955C2221.08 234.325 2221.08 369.494 2138.32 452.864L1754.52 839.521C1671.77 922.891 1537.59 922.891 1454.84 839.521Z" fill="#F3613C"/>
</svg>
