<svg width="570" height="976" viewBox="0 0 570 976" fill="none" xmlns="http://www.w3.org/2000/svg">
<path opacity="0.12" d="M83.437 467.478L83.4365 467.478C37.3558 421.054 37.3558 345.787 83.4365 299.363L297.152 84.0573C343.233 37.6338 417.945 37.6337 464.025 84.0573L464.026 84.0578C510.106 130.481 510.107 205.749 464.026 252.172L250.31 467.478C204.229 513.902 129.518 513.902 83.437 467.478Z" fill="#F3613C"/>
<path opacity="0.12" d="M212.886 911.181L212.885 911.181C177.455 875.487 177.455 817.617 212.885 781.924L377.203 616.383C412.633 580.69 470.076 580.69 505.506 616.383L505.506 616.383C540.936 652.077 540.936 709.947 505.506 745.641L341.188 911.181C305.758 946.875 248.315 946.875 212.886 911.181Z" fill="#F3613C"/>
</svg>
